REM DIRINDEX 1\2\6,1\2\7,1\2\8,1\2\9,1\3\10,1\3\11,1\4\12,1\4\13,1\4\14,1\5\15,1\5\16,1\5\17
REM DIRNAME cjc029,folder01,folder02,folder03,folder04,folder05,folder06,folder07,folder08,folder09,folder10,folder11,folder12,folder13,folder14,folder15,folder16
TITLE ""
FILE "1400_3_sec05_0467_0482.mp3" MP3
  TRACK 01 AUDIO
    TITLE "0:"
    INDEX 01 00:00:00
  TRACK 02 AUDIO
    TITLE "17:cjc029_5364"
    INDEX 01 00:00:15
  TRACK 03 AUDIO
    TITLE "0:"
    INDEX 01 00:01:17
  TRACK 04 AUDIO
    TITLE "16:cjc029_5365"
    INDEX 01 00:01:24
  TRACK 05 AUDIO
    TITLE "0:"
    INDEX 01 00:02:55
  TRACK 06 AUDIO
    TITLE "17:cjc029_5366"
    INDEX 01 00:03:39
  TRACK 07 AUDIO
    TITLE "0:"
    INDEX 01 00:04:50
  TRACK 08 AUDIO
    TITLE "16:cjc029_5367"
    INDEX 01 00:04:54
  TRACK 09 AUDIO
    TITLE "0:"
    INDEX 01 00:06:02
  TRACK 10 AUDIO
    TITLE "17:cjc029_5368"
    INDEX 01 00:06:61
  TRACK 11 AUDIO
    TITLE "0:"
    INDEX 01 00:08:03
  TRACK 12 AUDIO
    TITLE "16:cjc029_5369"
    INDEX 01 00:08:09
  TRACK 13 AUDIO
    TITLE "0:"
    INDEX 01 00:09:12
  TRACK 14 AUDIO
    TITLE "17:cjc029_5370"
    INDEX 01 00:09:69
  TRACK 15 AUDIO
    TITLE "0:"
    INDEX 01 00:11:09
  TRACK 16 AUDIO
    TITLE "16:cjc029_5371"
    INDEX 01 00:11:13
  TRACK 17 AUDIO
    TITLE "0:"
    INDEX 01 00:12:40
  TRACK 18 AUDIO
    TITLE "17:cjc029_5372"
    INDEX 01 00:13:24
  TRACK 19 AUDIO
    TITLE "0:"
    INDEX 01 00:15:34
  TRACK 20 AUDIO
    TITLE "16:cjc029_5373"
    INDEX 01 00:15:38
  TRACK 21 AUDIO
    TITLE "0:"
    INDEX 01 00:16:40
  TRACK 22 AUDIO
    TITLE "17:cjc029_5374"
    INDEX 01 00:17:27
  TRACK 23 AUDIO
    TITLE "0:"
    INDEX 01 00:19:30
  TRACK 24 AUDIO
    TITLE "16:cjc029_5375"
    INDEX 01 00:19:40
  TRACK 25 AUDIO
    TITLE "0:"
    INDEX 01 00:20:36
  TRACK 26 AUDIO
    TITLE "17:cjc029_5376"
    INDEX 01 00:21:17
  TRACK 27 AUDIO
    TITLE "0:"
    INDEX 01 00:24:24
  TRACK 28 AUDIO
    TITLE "16:cjc029_5377"
    INDEX 01 00:24:29
  TRACK 29 AUDIO
    TITLE "0:"
    INDEX 01 00:25:37
  TRACK 30 AUDIO
    TITLE "17:cjc029_5378"
    INDEX 01 00:26:24
  TRACK 31 AUDIO
    TITLE "0:"
    INDEX 01 00:27:41
  TRACK 32 AUDIO
    TITLE "16:cjc029_5379"
    INDEX 01 00:27:45
  TRACK 33 AUDIO
    TITLE "0:"
    INDEX 01 00:28:64
  TRACK 34 AUDIO
    TITLE "17:cjc029_5380"
    INDEX 01 00:29:46
  TRACK 35 AUDIO
    TITLE "0:"
    INDEX 01 00:30:57
  TRACK 36 AUDIO
    TITLE "16:cjc029_5381"
    INDEX 01 00:30:63
  TRACK 37 AUDIO
    TITLE "0:"
    INDEX 01 00:31:71
  TRACK 38 AUDIO
    TITLE "17:cjc029_5382"
    INDEX 01 00:32:56
  TRACK 39 AUDIO
    TITLE "0:"
    INDEX 01 00:34:00
  TRACK 40 AUDIO
    TITLE "16:cjc029_5383"
    INDEX 01 00:34:08
  TRACK 41 AUDIO
    TITLE "0:"
    INDEX 01 00:35:35
  TRACK 42 AUDIO
    TITLE "17:cjc029_5384"
    INDEX 01 00:36:21
  TRACK 43 AUDIO
    TITLE "0:"
    INDEX 01 00:37:42
  TRACK 44 AUDIO
    TITLE "16:cjc029_5385"
    INDEX 01 00:37:46
  TRACK 45 AUDIO
    TITLE "0:"
    INDEX 01 00:38:71
  TRACK 46 AUDIO
    TITLE "17:cjc029_5386"
    INDEX 01 00:39:56
  TRACK 47 AUDIO
    TITLE "0:"
    INDEX 01 00:40:56
  TRACK 48 AUDIO
    TITLE "16:cjc029_5387"
    INDEX 01 00:40:62
  TRACK 49 AUDIO
    TITLE "0:"
    INDEX 01 00:41:71
  TRACK 50 AUDIO
    TITLE "17:cjc029_5388"
    INDEX 01 00:42:55
  TRACK 51 AUDIO
    TITLE "0:"
    INDEX 01 00:43:56
  TRACK 52 AUDIO
    TITLE "16:cjc029_5389"
    INDEX 01 00:43:62
  TRACK 53 AUDIO
    TITLE "0:"
    INDEX 01 00:44:61
  TRACK 54 AUDIO
    TITLE "17:cjc029_5390"
    INDEX 01 00:45:45
  TRACK 55 AUDIO
    TITLE "0:"
    INDEX 01 00:47:15
  TRACK 56 AUDIO
    TITLE "16:cjc029_5391"
    INDEX 01 00:47:19
  TRACK 57 AUDIO
    TITLE "0:"
    INDEX 01 00:48:32
  TRACK 58 AUDIO
    TITLE "17:cjc029_5392"
    INDEX 01 00:49:14
  TRACK 59 AUDIO
    TITLE "0:"
    INDEX 01 00:51:05
  TRACK 60 AUDIO
    TITLE "16:cjc029_5393"
    INDEX 01 00:51:07
  TRACK 61 AUDIO
    TITLE "0:"
    INDEX 01 00:52:18
  TRACK 62 AUDIO
    TITLE "17:cjc029_5394"
    INDEX 01 00:53:02
  TRACK 63 AUDIO
    TITLE "0:"
    INDEX 01 00:54:23
  TRACK 64 AUDIO
    TITLE "16:cjc029_5395"
    INDEX 01 00:54:27
  TRACK 65 AUDIO
    TITLE "0:"
    INDEX 01 00:55:42
